<mxfile host="app.diagrams.net" modified="2023-08-08T09:23:43.856Z" agent="Mozilla/5.0 (Macintosh; Intel Mac OS X 10_15_7) AppleWebKit/537.36 (KHTML, like Gecko) Chrome/114.0.0.0 Safari/537.36" etag="ml2fpfdoam4u3KlHm8Oi" version="21.6.6" type="github">
  <diagram name="第 1 页" id="oeCHM0damJKCCX0aJpPC">
    <mxGraphModel dx="1948" dy="1163" grid="1" gridSize="10" guides="1" tooltips="1" connect="1" arrows="1" fold="1" page="1" pageScale="1" pageWidth="827" pageHeight="1169" math="0" shadow="0">
      <root>
        <mxCell id="0" />
        <mxCell id="1" parent="0" />
        <mxCell id="e_jC6DyC8DSp5otNmjVu-6" value="" style="group" vertex="1" connectable="0" parent="1">
          <mxGeometry x="150" y="312" width="70" height="62" as="geometry" />
        </mxCell>
        <mxCell id="e_jC6DyC8DSp5otNmjVu-1" value="" style="rounded=1;whiteSpace=wrap;html=1;fillColor=#f854a3;fontColor=#ffffff;strokeColor=none;" vertex="1" parent="e_jC6DyC8DSp5otNmjVu-6">
          <mxGeometry y="12" width="70" height="50" as="geometry" />
        </mxCell>
        <mxCell id="e_jC6DyC8DSp5otNmjVu-2" value="&lt;span style=&quot;font-size: 7px;&quot;&gt;&amp;lt;RFP&amp;gt;&lt;/span&gt;" style="text;html=1;align=center;verticalAlign=middle;resizable=0;points=[];autosize=1;strokeColor=none;fillColor=none;fontColor=#FFFFFF;" vertex="1" parent="e_jC6DyC8DSp5otNmjVu-6">
          <mxGeometry x="10" width="50" height="30" as="geometry" />
        </mxCell>
        <mxCell id="e_jC6DyC8DSp5otNmjVu-3" value="&lt;font style=&quot;font-size: 8px;&quot; color=&quot;#ffffff&quot;&gt;维保服务请求&lt;/font&gt;" style="text;html=1;align=center;verticalAlign=middle;resizable=0;points=[];autosize=1;strokeColor=none;fillColor=none;" vertex="1" parent="e_jC6DyC8DSp5otNmjVu-6">
          <mxGeometry y="16" width="70" height="30" as="geometry" />
        </mxCell>
        <mxCell id="e_jC6DyC8DSp5otNmjVu-4" value="&lt;font style=&quot;font-size: 5px;&quot;&gt;created_at&lt;/font&gt;" style="text;html=1;align=center;verticalAlign=middle;resizable=0;points=[];autosize=1;strokeColor=none;fillColor=none;fontColor=#FFFFFF;fontSize=5;" vertex="1" parent="e_jC6DyC8DSp5otNmjVu-6">
          <mxGeometry x="10" y="33" width="50" height="20" as="geometry" />
        </mxCell>
        <mxCell id="e_jC6DyC8DSp5otNmjVu-5" value="&lt;font style=&quot;font-size: 5px;&quot;&gt;expired_at&lt;/font&gt;" style="text;html=1;align=center;verticalAlign=middle;resizable=0;points=[];autosize=1;strokeColor=none;fillColor=none;fontColor=#FFFFFF;fontSize=5;" vertex="1" parent="e_jC6DyC8DSp5otNmjVu-6">
          <mxGeometry x="10" y="42" width="50" height="20" as="geometry" />
        </mxCell>
        <mxCell id="e_jC6DyC8DSp5otNmjVu-7" value="" style="group" vertex="1" connectable="0" parent="1">
          <mxGeometry x="150" y="228" width="70" height="62" as="geometry" />
        </mxCell>
        <mxCell id="e_jC6DyC8DSp5otNmjVu-8" value="" style="rounded=1;whiteSpace=wrap;html=1;fillColor=#f854a3;fontColor=#ffffff;strokeColor=none;" vertex="1" parent="e_jC6DyC8DSp5otNmjVu-7">
          <mxGeometry y="12" width="70" height="50" as="geometry" />
        </mxCell>
        <mxCell id="e_jC6DyC8DSp5otNmjVu-9" value="&lt;font style=&quot;font-size: 7px;&quot;&gt;&amp;lt;Proposal&amp;gt;&lt;/font&gt;" style="text;html=1;align=center;verticalAlign=middle;resizable=0;points=[];autosize=1;strokeColor=none;fillColor=none;fontColor=#FFFFFF;" vertex="1" parent="e_jC6DyC8DSp5otNmjVu-7">
          <mxGeometry x="5" width="60" height="30" as="geometry" />
        </mxCell>
        <mxCell id="e_jC6DyC8DSp5otNmjVu-10" value="&lt;font color=&quot;#ffffff&quot;&gt;&lt;span style=&quot;font-size: 8px;&quot;&gt;维保方案&lt;/span&gt;&lt;/font&gt;" style="text;html=1;align=center;verticalAlign=middle;resizable=0;points=[];autosize=1;strokeColor=none;fillColor=none;" vertex="1" parent="e_jC6DyC8DSp5otNmjVu-7">
          <mxGeometry x="5" y="16" width="60" height="30" as="geometry" />
        </mxCell>
        <mxCell id="e_jC6DyC8DSp5otNmjVu-11" value="&lt;font style=&quot;font-size: 5px;&quot;&gt;created_at&lt;/font&gt;" style="text;html=1;align=center;verticalAlign=middle;resizable=0;points=[];autosize=1;strokeColor=none;fillColor=none;fontColor=#FFFFFF;fontSize=5;" vertex="1" parent="e_jC6DyC8DSp5otNmjVu-7">
          <mxGeometry x="10" y="40" width="50" height="20" as="geometry" />
        </mxCell>
        <mxCell id="e_jC6DyC8DSp5otNmjVu-12" value="&lt;font style=&quot;font-size: 5px;&quot;&gt;expired_at&lt;/font&gt;" style="text;html=1;align=center;verticalAlign=middle;resizable=0;points=[];autosize=1;strokeColor=none;fillColor=none;fontColor=#FFFFFF;fontSize=5;" vertex="1" parent="e_jC6DyC8DSp5otNmjVu-7">
          <mxGeometry x="10" y="47" width="50" height="20" as="geometry" />
        </mxCell>
        <mxCell id="e_jC6DyC8DSp5otNmjVu-65" value="&lt;font color=&quot;#f954a3&quot; style=&quot;font-size: 8px;&quot;&gt;1&lt;/font&gt;" style="text;html=1;align=center;verticalAlign=middle;resizable=0;points=[];autosize=1;strokeColor=none;fillColor=none;fontSize=8;" vertex="1" parent="e_jC6DyC8DSp5otNmjVu-7">
          <mxGeometry x="-40" y="22" width="30" height="20" as="geometry" />
        </mxCell>
        <mxCell id="e_jC6DyC8DSp5otNmjVu-75" value="&lt;font color=&quot;#f954a3&quot; style=&quot;font-size: 8px;&quot;&gt;*&lt;/font&gt;" style="text;html=1;align=center;verticalAlign=middle;resizable=0;points=[];autosize=1;strokeColor=none;fillColor=none;fontSize=8;" vertex="1" parent="e_jC6DyC8DSp5otNmjVu-7">
          <mxGeometry x="14" y="-6" width="30" height="20" as="geometry" />
        </mxCell>
        <mxCell id="e_jC6DyC8DSp5otNmjVu-13" value="" style="endArrow=none;html=1;rounded=0;exitX=0.49;exitY=-0.123;exitDx=0;exitDy=0;exitPerimeter=0;fontColor=#f954a3;labelBackgroundColor=#F954A3;labelBorderColor=#F954A3;strokeColor=#F954A3;" edge="1" parent="1" source="e_jC6DyC8DSp5otNmjVu-3">
          <mxGeometry width="50" height="50" relative="1" as="geometry">
            <mxPoint x="180" y="330" as="sourcePoint" />
            <mxPoint x="184" y="290" as="targetPoint" />
          </mxGeometry>
        </mxCell>
        <mxCell id="e_jC6DyC8DSp5otNmjVu-14" value="&lt;font color=&quot;#f954a3&quot; style=&quot;font-size: 8px;&quot;&gt;1&lt;/font&gt;" style="text;html=1;align=center;verticalAlign=middle;resizable=0;points=[];autosize=1;strokeColor=none;fillColor=none;fontSize=8;" vertex="1" parent="1">
          <mxGeometry x="164" y="286" width="30" height="20" as="geometry" />
        </mxCell>
        <mxCell id="e_jC6DyC8DSp5otNmjVu-15" value="&lt;font color=&quot;#f954a3&quot; style=&quot;font-size: 8px;&quot;&gt;1&lt;/font&gt;" style="text;html=1;align=center;verticalAlign=middle;resizable=0;points=[];autosize=1;strokeColor=none;fillColor=none;fontSize=8;" vertex="1" parent="1">
          <mxGeometry x="164" y="307" width="30" height="20" as="geometry" />
        </mxCell>
        <mxCell id="e_jC6DyC8DSp5otNmjVu-17" value="&lt;font style=&quot;font-size: 5px;&quot;&gt;price&lt;br&gt;&lt;/font&gt;" style="text;html=1;align=center;verticalAlign=middle;resizable=0;points=[];autosize=1;strokeColor=none;fillColor=none;fontColor=#FFFFFF;fontSize=5;" vertex="1" parent="1">
          <mxGeometry x="169" y="261" width="30" height="20" as="geometry" />
        </mxCell>
        <mxCell id="e_jC6DyC8DSp5otNmjVu-18" value="" style="group" vertex="1" connectable="0" parent="1">
          <mxGeometry x="253" y="228" width="70" height="62" as="geometry" />
        </mxCell>
        <mxCell id="e_jC6DyC8DSp5otNmjVu-19" value="" style="rounded=1;whiteSpace=wrap;html=1;fillColor=#f854a3;fontColor=#ffffff;strokeColor=none;" vertex="1" parent="e_jC6DyC8DSp5otNmjVu-18">
          <mxGeometry y="12" width="70" height="50" as="geometry" />
        </mxCell>
        <mxCell id="e_jC6DyC8DSp5otNmjVu-20" value="&lt;font style=&quot;font-size: 7px;&quot;&gt;&amp;lt;Contract&amp;gt;&lt;/font&gt;" style="text;html=1;align=center;verticalAlign=middle;resizable=0;points=[];autosize=1;strokeColor=none;fillColor=none;fontColor=#FFFFFF;" vertex="1" parent="e_jC6DyC8DSp5otNmjVu-18">
          <mxGeometry x="5" width="60" height="30" as="geometry" />
        </mxCell>
        <mxCell id="e_jC6DyC8DSp5otNmjVu-21" value="&lt;font color=&quot;#ffffff&quot;&gt;&lt;span style=&quot;font-size: 8px;&quot;&gt;维修保养合同&lt;/span&gt;&lt;/font&gt;" style="text;html=1;align=center;verticalAlign=middle;resizable=0;points=[];autosize=1;strokeColor=none;fillColor=none;" vertex="1" parent="e_jC6DyC8DSp5otNmjVu-18">
          <mxGeometry y="16" width="70" height="30" as="geometry" />
        </mxCell>
        <mxCell id="e_jC6DyC8DSp5otNmjVu-22" value="&lt;font style=&quot;font-size: 5px;&quot;&gt;created_at&lt;/font&gt;" style="text;html=1;align=center;verticalAlign=middle;resizable=0;points=[];autosize=1;strokeColor=none;fillColor=none;fontColor=#FFFFFF;fontSize=5;" vertex="1" parent="e_jC6DyC8DSp5otNmjVu-18">
          <mxGeometry x="10" y="38" width="50" height="20" as="geometry" />
        </mxCell>
        <mxCell id="e_jC6DyC8DSp5otNmjVu-23" value="&lt;font style=&quot;font-size: 5px;&quot;&gt;expired_at&lt;/font&gt;" style="text;html=1;align=center;verticalAlign=middle;resizable=0;points=[];autosize=1;strokeColor=none;fillColor=none;fontColor=#FFFFFF;fontSize=5;" vertex="1" parent="e_jC6DyC8DSp5otNmjVu-18">
          <mxGeometry x="10" y="46" width="50" height="20" as="geometry" />
        </mxCell>
        <mxCell id="e_jC6DyC8DSp5otNmjVu-24" value="" style="endArrow=none;html=1;rounded=0;exitX=1;exitY=0.5;exitDx=0;exitDy=0;entryX=-0.001;entryY=0.71;entryDx=0;entryDy=0;entryPerimeter=0;strokeColor=#F954A3;" edge="1" parent="1" source="e_jC6DyC8DSp5otNmjVu-8" target="e_jC6DyC8DSp5otNmjVu-21">
          <mxGeometry width="50" height="50" relative="1" as="geometry">
            <mxPoint x="220" y="340" as="sourcePoint" />
            <mxPoint x="270" y="290" as="targetPoint" />
          </mxGeometry>
        </mxCell>
        <mxCell id="e_jC6DyC8DSp5otNmjVu-25" value="&lt;font color=&quot;#f954a3&quot; style=&quot;font-size: 8px;&quot;&gt;1&lt;/font&gt;" style="text;html=1;align=center;verticalAlign=middle;resizable=0;points=[];autosize=1;strokeColor=none;fillColor=none;fontSize=8;" vertex="1" parent="1">
          <mxGeometry x="209" y="250" width="30" height="20" as="geometry" />
        </mxCell>
        <mxCell id="e_jC6DyC8DSp5otNmjVu-26" value="&lt;font color=&quot;#f954a3&quot; style=&quot;font-size: 8px;&quot;&gt;1&lt;/font&gt;" style="text;html=1;align=center;verticalAlign=middle;resizable=0;points=[];autosize=1;strokeColor=none;fillColor=none;fontSize=8;" vertex="1" parent="1">
          <mxGeometry x="234" y="250" width="30" height="20" as="geometry" />
        </mxCell>
        <mxCell id="e_jC6DyC8DSp5otNmjVu-27" value="" style="group" vertex="1" connectable="0" parent="1">
          <mxGeometry x="235" y="141" width="70" height="62" as="geometry" />
        </mxCell>
        <mxCell id="e_jC6DyC8DSp5otNmjVu-28" value="" style="rounded=1;whiteSpace=wrap;html=1;fillColor=#fe7e00;fontColor=#ffffff;strokeColor=none;" vertex="1" parent="e_jC6DyC8DSp5otNmjVu-27">
          <mxGeometry y="12" width="70" height="50" as="geometry" />
        </mxCell>
        <mxCell id="e_jC6DyC8DSp5otNmjVu-29" value="&lt;font style=&quot;font-size: 7px;&quot;&gt;&amp;lt;Domain&amp;gt;&lt;/font&gt;" style="text;html=1;align=center;verticalAlign=middle;resizable=0;points=[];autosize=1;strokeColor=none;fillColor=none;fontColor=#FFFFFF;" vertex="1" parent="e_jC6DyC8DSp5otNmjVu-27">
          <mxGeometry x="5" width="60" height="30" as="geometry" />
        </mxCell>
        <mxCell id="e_jC6DyC8DSp5otNmjVu-30" value="&lt;font color=&quot;#ffffff&quot;&gt;&lt;span style=&quot;font-size: 8px;&quot;&gt;维保费计算器&lt;/span&gt;&lt;/font&gt;" style="text;html=1;align=center;verticalAlign=middle;resizable=0;points=[];autosize=1;strokeColor=none;fillColor=none;" vertex="1" parent="e_jC6DyC8DSp5otNmjVu-27">
          <mxGeometry y="21" width="70" height="30" as="geometry" />
        </mxCell>
        <mxCell id="e_jC6DyC8DSp5otNmjVu-34" value="" style="group" vertex="1" connectable="0" parent="1">
          <mxGeometry x="150" y="141" width="75" height="62" as="geometry" />
        </mxCell>
        <mxCell id="e_jC6DyC8DSp5otNmjVu-35" value="" style="rounded=1;whiteSpace=wrap;html=1;fillColor=#fe7e00;fontColor=#ffffff;strokeColor=none;" vertex="1" parent="e_jC6DyC8DSp5otNmjVu-34">
          <mxGeometry y="12" width="70" height="50" as="geometry" />
        </mxCell>
        <mxCell id="e_jC6DyC8DSp5otNmjVu-36" value="&lt;font style=&quot;font-size: 7px;&quot;&gt;&amp;lt;Party&amp;gt;&lt;/font&gt;" style="text;html=1;align=center;verticalAlign=middle;resizable=0;points=[];autosize=1;strokeColor=none;fillColor=none;fontColor=#FFFFFF;" vertex="1" parent="e_jC6DyC8DSp5otNmjVu-34">
          <mxGeometry x="10" width="50" height="30" as="geometry" />
        </mxCell>
        <mxCell id="e_jC6DyC8DSp5otNmjVu-37" value="&lt;font color=&quot;#ffffff&quot;&gt;&lt;span style=&quot;font-size: 8px;&quot;&gt;维保服务商&lt;/span&gt;&lt;/font&gt;" style="text;html=1;align=center;verticalAlign=middle;resizable=0;points=[];autosize=1;strokeColor=none;fillColor=none;" vertex="1" parent="e_jC6DyC8DSp5otNmjVu-34">
          <mxGeometry x="5" y="21" width="60" height="30" as="geometry" />
        </mxCell>
        <mxCell id="e_jC6DyC8DSp5otNmjVu-38" value="" style="endArrow=none;html=1;rounded=0;exitX=0.5;exitY=1;exitDx=0;exitDy=0;strokeColor=#F954A3;" edge="1" parent="1" source="e_jC6DyC8DSp5otNmjVu-35">
          <mxGeometry width="50" height="50" relative="1" as="geometry">
            <mxPoint x="186" y="203" as="sourcePoint" />
            <mxPoint x="185" y="240" as="targetPoint" />
          </mxGeometry>
        </mxCell>
        <mxCell id="e_jC6DyC8DSp5otNmjVu-39" value="" style="group" vertex="1" connectable="0" parent="1">
          <mxGeometry x="50" y="399" width="80" height="62" as="geometry" />
        </mxCell>
        <mxCell id="e_jC6DyC8DSp5otNmjVu-40" value="" style="rounded=1;whiteSpace=wrap;html=1;fillColor=#00994D;fontColor=#ffffff;strokeColor=none;" vertex="1" parent="e_jC6DyC8DSp5otNmjVu-39">
          <mxGeometry y="12" width="70" height="50" as="geometry" />
        </mxCell>
        <mxCell id="e_jC6DyC8DSp5otNmjVu-41" value="&lt;font style=&quot;font-size: 7px;&quot;&gt;&amp;lt;Party&amp;gt;&lt;/font&gt;" style="text;html=1;align=center;verticalAlign=middle;resizable=0;points=[];autosize=1;strokeColor=none;fillColor=none;fontColor=#FFFFFF;" vertex="1" parent="e_jC6DyC8DSp5otNmjVu-39">
          <mxGeometry x="10" width="50" height="30" as="geometry" />
        </mxCell>
        <mxCell id="e_jC6DyC8DSp5otNmjVu-42" value="&lt;font color=&quot;#ffffff&quot;&gt;&lt;span style=&quot;font-size: 8px;&quot;&gt;租车系统注册&lt;br&gt;代理人&lt;/span&gt;&lt;/font&gt;" style="text;html=1;align=center;verticalAlign=middle;resizable=0;points=[];autosize=1;strokeColor=none;fillColor=none;" vertex="1" parent="e_jC6DyC8DSp5otNmjVu-39">
          <mxGeometry y="16" width="70" height="40" as="geometry" />
        </mxCell>
        <mxCell id="e_jC6DyC8DSp5otNmjVu-43" value="" style="group" vertex="1" connectable="0" parent="1">
          <mxGeometry x="150" y="399" width="85" height="62" as="geometry" />
        </mxCell>
        <mxCell id="e_jC6DyC8DSp5otNmjVu-44" value="" style="rounded=1;whiteSpace=wrap;html=1;fillColor=#fe7e00;fontColor=#ffffff;strokeColor=none;" vertex="1" parent="e_jC6DyC8DSp5otNmjVu-43">
          <mxGeometry y="12" width="70" height="50" as="geometry" />
        </mxCell>
        <mxCell id="e_jC6DyC8DSp5otNmjVu-45" value="&lt;font style=&quot;font-size: 7px;&quot;&gt;&amp;lt;Party&amp;gt;&lt;/font&gt;" style="text;html=1;align=center;verticalAlign=middle;resizable=0;points=[];autosize=1;strokeColor=none;fillColor=none;fontColor=#FFFFFF;" vertex="1" parent="e_jC6DyC8DSp5otNmjVu-43">
          <mxGeometry x="10" width="50" height="30" as="geometry" />
        </mxCell>
        <mxCell id="e_jC6DyC8DSp5otNmjVu-46" value="&lt;font color=&quot;#ffffff&quot;&gt;&lt;span style=&quot;font-size: 8px;&quot;&gt;租车公司维保代理人&lt;/span&gt;&lt;/font&gt;" style="text;html=1;align=center;verticalAlign=middle;resizable=0;points=[];autosize=1;strokeColor=none;fillColor=none;" vertex="1" parent="e_jC6DyC8DSp5otNmjVu-43">
          <mxGeometry x="-15" y="21" width="100" height="30" as="geometry" />
        </mxCell>
        <mxCell id="e_jC6DyC8DSp5otNmjVu-47" value="" style="endArrow=none;html=1;rounded=0;exitX=0.5;exitY=1;exitDx=0;exitDy=0;strokeColor=#F954A3;" edge="1" parent="1">
          <mxGeometry width="50" height="50" relative="1" as="geometry">
            <mxPoint x="184" y="374" as="sourcePoint" />
            <mxPoint x="184" y="411" as="targetPoint" />
          </mxGeometry>
        </mxCell>
        <mxCell id="e_jC6DyC8DSp5otNmjVu-48" value="" style="endArrow=classic;html=1;rounded=0;entryX=0;entryY=0.5;entryDx=0;entryDy=0;strokeColor=#F954A3;dashed=1;" edge="1" parent="1" source="e_jC6DyC8DSp5otNmjVu-42" target="e_jC6DyC8DSp5otNmjVu-44">
          <mxGeometry width="50" height="50" relative="1" as="geometry">
            <mxPoint x="120" y="436" as="sourcePoint" />
            <mxPoint x="220" y="320" as="targetPoint" />
            <Array as="points">
              <mxPoint x="120" y="436" />
            </Array>
          </mxGeometry>
        </mxCell>
        <mxCell id="e_jC6DyC8DSp5otNmjVu-50" value="" style="group" vertex="1" connectable="0" parent="1">
          <mxGeometry x="50" y="312" width="80" height="62" as="geometry" />
        </mxCell>
        <mxCell id="e_jC6DyC8DSp5otNmjVu-51" value="" style="rounded=1;whiteSpace=wrap;html=1;fillColor=#00994D;fontColor=#ffffff;strokeColor=none;" vertex="1" parent="e_jC6DyC8DSp5otNmjVu-50">
          <mxGeometry y="12" width="70" height="50" as="geometry" />
        </mxCell>
        <mxCell id="e_jC6DyC8DSp5otNmjVu-52" value="&lt;font style=&quot;font-size: 7px;&quot;&gt;&amp;lt;Place&amp;gt;&lt;/font&gt;" style="text;html=1;align=center;verticalAlign=middle;resizable=0;points=[];autosize=1;strokeColor=none;fillColor=none;fontColor=#FFFFFF;" vertex="1" parent="e_jC6DyC8DSp5otNmjVu-50">
          <mxGeometry x="10" width="50" height="30" as="geometry" />
        </mxCell>
        <mxCell id="e_jC6DyC8DSp5otNmjVu-53" value="&lt;font color=&quot;#ffffff&quot;&gt;&lt;span style=&quot;font-size: 8px;&quot;&gt;租车系统&lt;/span&gt;&lt;/font&gt;" style="text;html=1;align=center;verticalAlign=middle;resizable=0;points=[];autosize=1;strokeColor=none;fillColor=none;" vertex="1" parent="e_jC6DyC8DSp5otNmjVu-50">
          <mxGeometry x="5" y="21" width="60" height="30" as="geometry" />
        </mxCell>
        <mxCell id="e_jC6DyC8DSp5otNmjVu-61" value="" style="endArrow=none;html=1;rounded=0;exitX=1;exitY=0.5;exitDx=0;exitDy=0;entryX=0;entryY=0.5;entryDx=0;entryDy=0;strokeColor=#F954A3;" edge="1" parent="e_jC6DyC8DSp5otNmjVu-50">
          <mxGeometry width="50" height="50" relative="1" as="geometry">
            <mxPoint x="70" y="34.70999999999998" as="sourcePoint" />
            <mxPoint x="100" y="34.70999999999998" as="targetPoint" />
          </mxGeometry>
        </mxCell>
        <mxCell id="e_jC6DyC8DSp5otNmjVu-54" value="" style="group" vertex="1" connectable="0" parent="1">
          <mxGeometry x="50" y="228" width="95" height="62" as="geometry" />
        </mxCell>
        <mxCell id="e_jC6DyC8DSp5otNmjVu-55" value="" style="rounded=1;whiteSpace=wrap;html=1;fillColor=#00994D;fontColor=#ffffff;strokeColor=none;" vertex="1" parent="e_jC6DyC8DSp5otNmjVu-54">
          <mxGeometry y="12" width="70" height="50" as="geometry" />
        </mxCell>
        <mxCell id="e_jC6DyC8DSp5otNmjVu-56" value="&lt;font style=&quot;font-size: 7px;&quot;&gt;&amp;lt;Thing&amp;gt;&lt;/font&gt;" style="text;html=1;align=center;verticalAlign=middle;resizable=0;points=[];autosize=1;strokeColor=none;fillColor=none;fontColor=#FFFFFF;" vertex="1" parent="e_jC6DyC8DSp5otNmjVu-54">
          <mxGeometry x="10" width="50" height="30" as="geometry" />
        </mxCell>
        <mxCell id="e_jC6DyC8DSp5otNmjVu-57" value="&lt;font color=&quot;#ffffff&quot;&gt;&lt;span style=&quot;font-size: 8px;&quot;&gt;维保服务&lt;/span&gt;&lt;/font&gt;" style="text;html=1;align=center;verticalAlign=middle;resizable=0;points=[];autosize=1;strokeColor=none;fillColor=none;" vertex="1" parent="e_jC6DyC8DSp5otNmjVu-54">
          <mxGeometry x="5" y="21" width="60" height="30" as="geometry" />
        </mxCell>
        <mxCell id="e_jC6DyC8DSp5otNmjVu-64" value="&lt;font color=&quot;#f954a3&quot; style=&quot;font-size: 8px;&quot;&gt;1&lt;/font&gt;" style="text;html=1;align=center;verticalAlign=middle;resizable=0;points=[];autosize=1;strokeColor=none;fillColor=none;fontSize=8;" vertex="1" parent="e_jC6DyC8DSp5otNmjVu-54">
          <mxGeometry x="78" y="22" width="30" height="20" as="geometry" />
        </mxCell>
        <mxCell id="e_jC6DyC8DSp5otNmjVu-59" value="" style="endArrow=none;html=1;rounded=0;exitX=0.5;exitY=1;exitDx=0;exitDy=0;strokeColor=#F954A3;" edge="1" parent="1" source="e_jC6DyC8DSp5otNmjVu-51">
          <mxGeometry width="50" height="50" relative="1" as="geometry">
            <mxPoint x="85.00000000000011" y="378" as="sourcePoint" />
            <mxPoint x="85" y="411" as="targetPoint" />
            <Array as="points">
              <mxPoint x="85" y="411" />
            </Array>
          </mxGeometry>
        </mxCell>
        <mxCell id="e_jC6DyC8DSp5otNmjVu-62" value="&lt;font color=&quot;#f954a3&quot; style=&quot;font-size: 8px;&quot;&gt;1&lt;/font&gt;" style="text;html=1;align=center;verticalAlign=middle;resizable=0;points=[];autosize=1;strokeColor=none;fillColor=none;fontSize=8;" vertex="1" parent="1">
          <mxGeometry x="110" y="330" width="30" height="20" as="geometry" />
        </mxCell>
        <mxCell id="e_jC6DyC8DSp5otNmjVu-63" value="&lt;font color=&quot;#f954a3&quot; style=&quot;font-size: 8px;&quot;&gt;*&lt;/font&gt;" style="text;html=1;align=center;verticalAlign=middle;resizable=0;points=[];autosize=1;strokeColor=none;fillColor=none;fontSize=8;" vertex="1" parent="1">
          <mxGeometry x="130" y="330" width="30" height="20" as="geometry" />
        </mxCell>
        <mxCell id="e_jC6DyC8DSp5otNmjVu-66" value="" style="group" vertex="1" connectable="0" parent="1">
          <mxGeometry x="50" y="140" width="85" height="62" as="geometry" />
        </mxCell>
        <mxCell id="e_jC6DyC8DSp5otNmjVu-67" value="" style="rounded=1;whiteSpace=wrap;html=1;fillColor=#00994D;fontColor=#ffffff;strokeColor=none;" vertex="1" parent="e_jC6DyC8DSp5otNmjVu-66">
          <mxGeometry y="12" width="70" height="50" as="geometry" />
        </mxCell>
        <mxCell id="e_jC6DyC8DSp5otNmjVu-68" value="&lt;font style=&quot;font-size: 7px;&quot;&gt;&amp;lt;Party&amp;gt;&lt;/font&gt;" style="text;html=1;align=center;verticalAlign=middle;resizable=0;points=[];autosize=1;strokeColor=none;fillColor=none;fontColor=#FFFFFF;" vertex="1" parent="e_jC6DyC8DSp5otNmjVu-66">
          <mxGeometry x="10" width="50" height="30" as="geometry" />
        </mxCell>
        <mxCell id="e_jC6DyC8DSp5otNmjVu-69" value="&lt;font color=&quot;#ffffff&quot;&gt;&lt;span style=&quot;font-size: 8px;&quot;&gt;租车系统注册&lt;br&gt;服务商&lt;/span&gt;&lt;/font&gt;" style="text;html=1;align=center;verticalAlign=middle;resizable=0;points=[];autosize=1;strokeColor=none;fillColor=none;" vertex="1" parent="e_jC6DyC8DSp5otNmjVu-66">
          <mxGeometry y="16" width="70" height="40" as="geometry" />
        </mxCell>
        <mxCell id="e_jC6DyC8DSp5otNmjVu-71" value="" style="endArrow=classic;html=1;rounded=0;strokeColor=#F954A3;dashed=1;entryX=-0.032;entryY=0.546;entryDx=0;entryDy=0;entryPerimeter=0;exitX=1.008;exitY=0.597;exitDx=0;exitDy=0;exitPerimeter=0;" edge="1" parent="1" source="e_jC6DyC8DSp5otNmjVu-67">
          <mxGeometry width="50" height="50" relative="1" as="geometry">
            <mxPoint x="116.92" y="180.00000000000006" as="sourcePoint" />
            <mxPoint x="149.99999999999997" y="181.38000000000005" as="targetPoint" />
            <Array as="points" />
          </mxGeometry>
        </mxCell>
        <mxCell id="e_jC6DyC8DSp5otNmjVu-58" value="" style="endArrow=none;html=1;rounded=0;exitX=1;exitY=0.5;exitDx=0;exitDy=0;entryX=0;entryY=0.5;entryDx=0;entryDy=0;strokeColor=#F954A3;" edge="1" parent="1" source="e_jC6DyC8DSp5otNmjVu-55" target="e_jC6DyC8DSp5otNmjVu-8">
          <mxGeometry width="50" height="50" relative="1" as="geometry">
            <mxPoint x="120" y="176.70999999999998" as="sourcePoint" />
            <mxPoint x="150" y="176.70999999999998" as="targetPoint" />
          </mxGeometry>
        </mxCell>
        <mxCell id="e_jC6DyC8DSp5otNmjVu-72" value="" style="endArrow=none;html=1;rounded=0;exitX=0.5;exitY=1;exitDx=0;exitDy=0;strokeColor=#F954A3;" edge="1" parent="1">
          <mxGeometry width="50" height="50" relative="1" as="geometry">
            <mxPoint x="84" y="203" as="sourcePoint" />
            <mxPoint x="84" y="240" as="targetPoint" />
          </mxGeometry>
        </mxCell>
        <mxCell id="e_jC6DyC8DSp5otNmjVu-73" value="&lt;font color=&quot;#f954a3&quot; style=&quot;font-size: 8px;&quot;&gt;1&lt;/font&gt;" style="text;html=1;align=center;verticalAlign=middle;resizable=0;points=[];autosize=1;strokeColor=none;fillColor=none;fontSize=8;" vertex="1" parent="1">
          <mxGeometry x="164" y="203" width="30" height="20" as="geometry" />
        </mxCell>
        <mxCell id="e_jC6DyC8DSp5otNmjVu-76" value="&lt;font color=&quot;#f954a3&quot; style=&quot;font-size: 8px;&quot;&gt;*&lt;/font&gt;" style="text;html=1;align=center;verticalAlign=middle;resizable=0;points=[];autosize=1;strokeColor=none;fillColor=none;fontSize=8;" vertex="1" parent="1">
          <mxGeometry x="164" y="372" width="30" height="20" as="geometry" />
        </mxCell>
        <mxCell id="e_jC6DyC8DSp5otNmjVu-77" value="&lt;font color=&quot;#f954a3&quot; style=&quot;font-size: 8px;&quot;&gt;1&lt;/font&gt;" style="text;html=1;align=center;verticalAlign=middle;resizable=0;points=[];autosize=1;strokeColor=none;fillColor=none;fontSize=8;" vertex="1" parent="1">
          <mxGeometry x="164" y="390" width="30" height="20" as="geometry" />
        </mxCell>
        <mxCell id="e_jC6DyC8DSp5otNmjVu-78" value="" style="group" vertex="1" connectable="0" parent="1">
          <mxGeometry x="400" y="140" width="70" height="62" as="geometry" />
        </mxCell>
        <mxCell id="e_jC6DyC8DSp5otNmjVu-79" value="" style="rounded=1;whiteSpace=wrap;html=1;fillColor=#f854a3;fontColor=#ffffff;strokeColor=none;" vertex="1" parent="e_jC6DyC8DSp5otNmjVu-78">
          <mxGeometry y="12" width="70" height="50" as="geometry" />
        </mxCell>
        <mxCell id="e_jC6DyC8DSp5otNmjVu-80" value="&lt;font style=&quot;font-size: 7px;&quot;&gt;&amp;lt;Fulfillment&amp;gt;&lt;/font&gt;" style="text;html=1;align=center;verticalAlign=middle;resizable=0;points=[];autosize=1;strokeColor=none;fillColor=none;fontColor=#FFFFFF;" vertex="1" parent="e_jC6DyC8DSp5otNmjVu-78">
          <mxGeometry x="5" width="60" height="30" as="geometry" />
        </mxCell>
        <mxCell id="e_jC6DyC8DSp5otNmjVu-81" value="&lt;font color=&quot;#ffffff&quot;&gt;&lt;span style=&quot;font-size: 8px;&quot;&gt;维修保养请求&lt;/span&gt;&lt;/font&gt;" style="text;html=1;align=center;verticalAlign=middle;resizable=0;points=[];autosize=1;strokeColor=none;fillColor=none;" vertex="1" parent="e_jC6DyC8DSp5otNmjVu-78">
          <mxGeometry y="16" width="70" height="30" as="geometry" />
        </mxCell>
        <mxCell id="e_jC6DyC8DSp5otNmjVu-82" value="&lt;font style=&quot;font-size: 5px;&quot;&gt;created_at&lt;/font&gt;" style="text;html=1;align=center;verticalAlign=middle;resizable=0;points=[];autosize=1;strokeColor=none;fillColor=none;fontColor=#FFFFFF;fontSize=5;" vertex="1" parent="e_jC6DyC8DSp5otNmjVu-78">
          <mxGeometry x="10" y="38" width="50" height="20" as="geometry" />
        </mxCell>
        <mxCell id="e_jC6DyC8DSp5otNmjVu-83" value="&lt;font style=&quot;font-size: 5px;&quot;&gt;expired_at&lt;/font&gt;" style="text;html=1;align=center;verticalAlign=middle;resizable=0;points=[];autosize=1;strokeColor=none;fillColor=none;fontColor=#FFFFFF;fontSize=5;" vertex="1" parent="e_jC6DyC8DSp5otNmjVu-78">
          <mxGeometry x="10" y="46" width="50" height="20" as="geometry" />
        </mxCell>
        <mxCell id="e_jC6DyC8DSp5otNmjVu-84" value="&lt;font style=&quot;font-size: 5px;&quot;&gt;expired_at&lt;/font&gt;" style="text;html=1;align=center;verticalAlign=middle;resizable=0;points=[];autosize=1;strokeColor=none;fillColor=none;fontColor=#FFFFFF;fontSize=5;" vertex="1" parent="1">
          <mxGeometry x="364" y="196" width="50" height="20" as="geometry" />
        </mxCell>
        <mxCell id="e_jC6DyC8DSp5otNmjVu-85" value="" style="group;fontSize=6;" vertex="1" connectable="0" parent="1">
          <mxGeometry x="459" y="140" width="136" height="76" as="geometry" />
        </mxCell>
        <mxCell id="e_jC6DyC8DSp5otNmjVu-86" value="" style="rounded=1;whiteSpace=wrap;html=1;fillColor=#F954A3;fontColor=#ffffff;strokeColor=none;" vertex="1" parent="e_jC6DyC8DSp5otNmjVu-85">
          <mxGeometry x="56" y="12" width="70" height="50" as="geometry" />
        </mxCell>
        <mxCell id="e_jC6DyC8DSp5otNmjVu-87" value="&lt;font style=&quot;font-size: 7px;&quot;&gt;&amp;lt;Fulfillment&amp;gt;&lt;/font&gt;" style="text;html=1;align=center;verticalAlign=middle;resizable=0;points=[];autosize=1;strokeColor=none;fillColor=none;fontColor=#FFFFFF;" vertex="1" parent="e_jC6DyC8DSp5otNmjVu-85">
          <mxGeometry x="61" width="60" height="30" as="geometry" />
        </mxCell>
        <mxCell id="e_jC6DyC8DSp5otNmjVu-88" value="&lt;font color=&quot;#ffffff&quot;&gt;&lt;span style=&quot;font-size: 8px;&quot;&gt;维修保养报告单&lt;/span&gt;&lt;/font&gt;" style="text;html=1;align=center;verticalAlign=middle;resizable=0;points=[];autosize=1;strokeColor=none;fillColor=none;" vertex="1" parent="e_jC6DyC8DSp5otNmjVu-85">
          <mxGeometry x="51" y="16" width="80" height="30" as="geometry" />
        </mxCell>
        <mxCell id="e_jC6DyC8DSp5otNmjVu-89" value="&lt;font style=&quot;font-size: 5px;&quot;&gt;created_at&lt;/font&gt;" style="text;html=1;align=center;verticalAlign=middle;resizable=0;points=[];autosize=1;strokeColor=none;fillColor=none;fontColor=#FFFFFF;fontSize=5;" vertex="1" parent="e_jC6DyC8DSp5otNmjVu-85">
          <mxGeometry x="66" y="38" width="50" height="20" as="geometry" />
        </mxCell>
        <mxCell id="e_jC6DyC8DSp5otNmjVu-153" value="" style="group;fontSize=11;" vertex="1" connectable="0" parent="e_jC6DyC8DSp5otNmjVu-85">
          <mxGeometry x="-4" y="46" width="60" height="26" as="geometry" />
        </mxCell>
        <mxCell id="e_jC6DyC8DSp5otNmjVu-154" value="租车公司维保代理人" style="rounded=1;whiteSpace=wrap;html=1;fillColor=#fe7e00;fontColor=#ffffff;strokeColor=none;fontSize=6;" vertex="1" parent="e_jC6DyC8DSp5otNmjVu-153">
          <mxGeometry x="-1" y="6" width="41" height="20" as="geometry" />
        </mxCell>
        <mxCell id="e_jC6DyC8DSp5otNmjVu-97" value="&lt;font color=&quot;#f954a3&quot; style=&quot;font-size: 8px;&quot;&gt;1&lt;/font&gt;" style="text;html=1;align=center;verticalAlign=middle;resizable=0;points=[];autosize=1;strokeColor=none;fillColor=none;fontSize=8;" vertex="1" parent="1">
          <mxGeometry x="369.99545454545455" y="168" width="30" height="20" as="geometry" />
        </mxCell>
        <mxCell id="e_jC6DyC8DSp5otNmjVu-100" value="" style="group" vertex="1" connectable="0" parent="1">
          <mxGeometry x="219" y="52" width="55" height="20" as="geometry" />
        </mxCell>
        <mxCell id="e_jC6DyC8DSp5otNmjVu-91" value="&lt;font color=&quot;#f954a3&quot; style=&quot;font-size: 8px;&quot;&gt;1&lt;/font&gt;" style="text;html=1;align=center;verticalAlign=middle;resizable=0;points=[];autosize=1;strokeColor=none;fillColor=none;fontSize=8;" vertex="1" parent="e_jC6DyC8DSp5otNmjVu-100">
          <mxGeometry width="30" height="20" as="geometry" />
        </mxCell>
        <mxCell id="e_jC6DyC8DSp5otNmjVu-92" value="&lt;font color=&quot;#f954a3&quot; style=&quot;font-size: 8px;&quot;&gt;1&lt;/font&gt;" style="text;html=1;align=center;verticalAlign=middle;resizable=0;points=[];autosize=1;strokeColor=none;fillColor=none;fontSize=8;" vertex="1" parent="e_jC6DyC8DSp5otNmjVu-100">
          <mxGeometry x="25" width="30" height="20" as="geometry" />
        </mxCell>
        <mxCell id="e_jC6DyC8DSp5otNmjVu-93" value="" style="endArrow=none;html=1;rounded=0;exitX=0.838;exitY=0.876;exitDx=0;exitDy=0;strokeColor=#F954A3;exitPerimeter=0;entryX=-0.017;entryY=0.902;entryDx=0;entryDy=0;entryPerimeter=0;" edge="1" parent="e_jC6DyC8DSp5otNmjVu-100">
          <mxGeometry width="50" height="50" relative="1" as="geometry">
            <mxPoint x="53.13999999999987" y="17.519999999999982" as="sourcePoint" />
            <mxPoint x="2.490000000000009" y="18.04000000000002" as="targetPoint" />
          </mxGeometry>
        </mxCell>
        <mxCell id="e_jC6DyC8DSp5otNmjVu-102" value="" style="group" vertex="1" connectable="0" parent="1">
          <mxGeometry x="466" y="160" width="50" height="20" as="geometry" />
        </mxCell>
        <mxCell id="e_jC6DyC8DSp5otNmjVu-103" value="&lt;font color=&quot;#f954a3&quot; style=&quot;font-size: 8px;&quot;&gt;1&lt;/font&gt;" style="text;html=1;align=center;verticalAlign=middle;resizable=0;points=[];autosize=1;strokeColor=none;fillColor=none;fontSize=8;" vertex="1" parent="e_jC6DyC8DSp5otNmjVu-102">
          <mxGeometry width="30" height="20" as="geometry" />
        </mxCell>
        <mxCell id="e_jC6DyC8DSp5otNmjVu-104" value="&lt;font color=&quot;#f954a3&quot; style=&quot;font-size: 8px;&quot;&gt;1&lt;/font&gt;" style="text;html=1;align=center;verticalAlign=middle;resizable=0;points=[];autosize=1;strokeColor=none;fillColor=none;fontSize=8;" vertex="1" parent="e_jC6DyC8DSp5otNmjVu-102">
          <mxGeometry x="22.727272727272727" width="30" height="20" as="geometry" />
        </mxCell>
        <mxCell id="e_jC6DyC8DSp5otNmjVu-105" value="" style="endArrow=none;html=1;rounded=0;exitX=0.838;exitY=0.876;exitDx=0;exitDy=0;strokeColor=#F954A3;exitPerimeter=0;entryX=-0.017;entryY=0.902;entryDx=0;entryDy=0;entryPerimeter=0;" edge="1" parent="e_jC6DyC8DSp5otNmjVu-102">
          <mxGeometry width="50" height="50" relative="1" as="geometry">
            <mxPoint x="48.30909090909079" y="17.519999999999982" as="sourcePoint" />
            <mxPoint x="2.2636363636363717" y="18.04000000000002" as="targetPoint" />
          </mxGeometry>
        </mxCell>
        <mxCell id="e_jC6DyC8DSp5otNmjVu-107" value="" style="endArrow=none;html=1;rounded=0;exitX=0;exitY=0.5;exitDx=0;exitDy=0;strokeColor=#F954A3;entryX=0.995;entryY=0.695;entryDx=0;entryDy=0;entryPerimeter=0;" edge="1" parent="1" source="e_jC6DyC8DSp5otNmjVu-79" target="e_jC6DyC8DSp5otNmjVu-21">
          <mxGeometry width="50" height="50" relative="1" as="geometry">
            <mxPoint x="94" y="213" as="sourcePoint" />
            <mxPoint x="94" y="250" as="targetPoint" />
          </mxGeometry>
        </mxCell>
        <mxCell id="e_jC6DyC8DSp5otNmjVu-101" value="&lt;font color=&quot;#f954a3&quot; style=&quot;font-size: 8px;&quot;&gt;1&lt;/font&gt;" style="text;html=1;align=center;verticalAlign=middle;resizable=0;points=[];autosize=1;strokeColor=none;fillColor=none;fontSize=8;" vertex="1" parent="1">
          <mxGeometry x="319.99545454545455" y="232" width="30" height="20" as="geometry" />
        </mxCell>
        <mxCell id="e_jC6DyC8DSp5otNmjVu-108" value="" style="rounded=1;whiteSpace=wrap;html=1;fillColor=#f854a3;fontColor=#ffffff;strokeColor=none;" vertex="1" parent="1">
          <mxGeometry x="399" y="219" width="70" height="50" as="geometry" />
        </mxCell>
        <mxCell id="e_jC6DyC8DSp5otNmjVu-109" value="&lt;font color=&quot;#ffffff&quot;&gt;&lt;span style=&quot;font-size: 8px;&quot;&gt;维修保养验收请求&lt;/span&gt;&lt;/font&gt;" style="text;html=1;align=center;verticalAlign=middle;resizable=0;points=[];autosize=1;strokeColor=none;fillColor=none;" vertex="1" parent="1">
          <mxGeometry x="389" y="223" width="90" height="30" as="geometry" />
        </mxCell>
        <mxCell id="e_jC6DyC8DSp5otNmjVu-110" value="&lt;font style=&quot;font-size: 5px;&quot;&gt;created_at&lt;/font&gt;" style="text;html=1;align=center;verticalAlign=middle;resizable=0;points=[];autosize=1;strokeColor=none;fillColor=none;fontColor=#FFFFFF;fontSize=5;" vertex="1" parent="1">
          <mxGeometry x="409" y="245" width="50" height="20" as="geometry" />
        </mxCell>
        <mxCell id="e_jC6DyC8DSp5otNmjVu-111" value="&lt;font style=&quot;font-size: 5px;&quot;&gt;expired_at&lt;/font&gt;" style="text;html=1;align=center;verticalAlign=middle;resizable=0;points=[];autosize=1;strokeColor=none;fillColor=none;fontColor=#FFFFFF;fontSize=5;" vertex="1" parent="1">
          <mxGeometry x="409" y="253" width="50" height="20" as="geometry" />
        </mxCell>
        <mxCell id="e_jC6DyC8DSp5otNmjVu-112" value="" style="rounded=1;whiteSpace=wrap;html=1;fillColor=#F954A3;fontColor=#ffffff;strokeColor=none;" vertex="1" parent="1">
          <mxGeometry x="514" y="219" width="70" height="50" as="geometry" />
        </mxCell>
        <mxCell id="e_jC6DyC8DSp5otNmjVu-113" value="&lt;font color=&quot;#ffffff&quot;&gt;&lt;span style=&quot;font-size: 8px;&quot;&gt;车辆验收确认&lt;/span&gt;&lt;/font&gt;" style="text;html=1;align=center;verticalAlign=middle;resizable=0;points=[];autosize=1;strokeColor=none;fillColor=none;" vertex="1" parent="1">
          <mxGeometry x="514" y="223" width="70" height="30" as="geometry" />
        </mxCell>
        <mxCell id="e_jC6DyC8DSp5otNmjVu-114" value="&lt;font style=&quot;font-size: 5px;&quot;&gt;created_at&lt;/font&gt;" style="text;html=1;align=center;verticalAlign=middle;resizable=0;points=[];autosize=1;strokeColor=none;fillColor=none;fontColor=#FFFFFF;fontSize=5;" vertex="1" parent="1">
          <mxGeometry x="524" y="245" width="50" height="20" as="geometry" />
        </mxCell>
        <mxCell id="e_jC6DyC8DSp5otNmjVu-115" value="" style="group" vertex="1" connectable="0" parent="1">
          <mxGeometry x="465" y="227" width="50" height="20" as="geometry" />
        </mxCell>
        <mxCell id="e_jC6DyC8DSp5otNmjVu-116" value="&lt;font color=&quot;#f954a3&quot; style=&quot;font-size: 8px;&quot;&gt;1&lt;/font&gt;" style="text;html=1;align=center;verticalAlign=middle;resizable=0;points=[];autosize=1;strokeColor=none;fillColor=none;fontSize=8;" vertex="1" parent="e_jC6DyC8DSp5otNmjVu-115">
          <mxGeometry width="30" height="20" as="geometry" />
        </mxCell>
        <mxCell id="e_jC6DyC8DSp5otNmjVu-117" value="&lt;font color=&quot;#f954a3&quot; style=&quot;font-size: 8px;&quot;&gt;1&lt;/font&gt;" style="text;html=1;align=center;verticalAlign=middle;resizable=0;points=[];autosize=1;strokeColor=none;fillColor=none;fontSize=8;" vertex="1" parent="e_jC6DyC8DSp5otNmjVu-115">
          <mxGeometry x="22.727272727272727" width="30" height="20" as="geometry" />
        </mxCell>
        <mxCell id="e_jC6DyC8DSp5otNmjVu-118" value="" style="endArrow=none;html=1;rounded=0;exitX=0.838;exitY=0.876;exitDx=0;exitDy=0;strokeColor=#F954A3;exitPerimeter=0;entryX=-0.017;entryY=0.902;entryDx=0;entryDy=0;entryPerimeter=0;" edge="1" parent="e_jC6DyC8DSp5otNmjVu-115">
          <mxGeometry width="50" height="50" relative="1" as="geometry">
            <mxPoint x="48.30909090909079" y="17.519999999999982" as="sourcePoint" />
            <mxPoint x="2.2636363636363717" y="18.04000000000002" as="targetPoint" />
          </mxGeometry>
        </mxCell>
        <mxCell id="e_jC6DyC8DSp5otNmjVu-119" value="" style="rounded=1;whiteSpace=wrap;html=1;fillColor=#f854a3;fontColor=#ffffff;strokeColor=none;" vertex="1" parent="1">
          <mxGeometry x="398" y="284" width="70" height="50" as="geometry" />
        </mxCell>
        <mxCell id="e_jC6DyC8DSp5otNmjVu-120" value="&lt;font color=&quot;#ffffff&quot;&gt;&lt;span style=&quot;font-size: 8px;&quot;&gt;维保费支付请求&lt;/span&gt;&lt;/font&gt;" style="text;html=1;align=center;verticalAlign=middle;resizable=0;points=[];autosize=1;strokeColor=none;fillColor=none;" vertex="1" parent="1">
          <mxGeometry x="393" y="288" width="80" height="30" as="geometry" />
        </mxCell>
        <mxCell id="e_jC6DyC8DSp5otNmjVu-121" value="&lt;font style=&quot;font-size: 5px;&quot;&gt;created_at&lt;/font&gt;" style="text;html=1;align=center;verticalAlign=middle;resizable=0;points=[];autosize=1;strokeColor=none;fillColor=none;fontColor=#FFFFFF;fontSize=5;" vertex="1" parent="1">
          <mxGeometry x="408" y="310" width="50" height="20" as="geometry" />
        </mxCell>
        <mxCell id="e_jC6DyC8DSp5otNmjVu-122" value="&lt;font style=&quot;font-size: 5px;&quot;&gt;expired_at&lt;/font&gt;" style="text;html=1;align=center;verticalAlign=middle;resizable=0;points=[];autosize=1;strokeColor=none;fillColor=none;fontColor=#FFFFFF;fontSize=5;" vertex="1" parent="1">
          <mxGeometry x="408" y="318" width="50" height="20" as="geometry" />
        </mxCell>
        <mxCell id="e_jC6DyC8DSp5otNmjVu-123" value="" style="rounded=1;whiteSpace=wrap;html=1;fillColor=#fe7e00;fontColor=#ffffff;strokeColor=none;" vertex="1" parent="1">
          <mxGeometry x="513" y="284" width="70" height="50" as="geometry" />
        </mxCell>
        <mxCell id="e_jC6DyC8DSp5otNmjVu-124" value="&lt;font color=&quot;#ffffff&quot;&gt;&lt;span style=&quot;font-size: 8px;&quot;&gt;维保费支付凭证&lt;/span&gt;&lt;/font&gt;" style="text;html=1;align=center;verticalAlign=middle;resizable=0;points=[];autosize=1;strokeColor=none;fillColor=none;" vertex="1" parent="1">
          <mxGeometry x="508" y="288" width="80" height="30" as="geometry" />
        </mxCell>
        <mxCell id="e_jC6DyC8DSp5otNmjVu-125" value="&lt;font style=&quot;font-size: 5px;&quot;&gt;created_at&lt;/font&gt;" style="text;html=1;align=center;verticalAlign=middle;resizable=0;points=[];autosize=1;strokeColor=none;fillColor=none;fontColor=#FFFFFF;fontSize=5;" vertex="1" parent="1">
          <mxGeometry x="523" y="310" width="50" height="20" as="geometry" />
        </mxCell>
        <mxCell id="e_jC6DyC8DSp5otNmjVu-126" value="" style="group" vertex="1" connectable="0" parent="1">
          <mxGeometry x="464" y="292" width="50" height="20" as="geometry" />
        </mxCell>
        <mxCell id="e_jC6DyC8DSp5otNmjVu-127" value="&lt;font color=&quot;#f954a3&quot; style=&quot;font-size: 8px;&quot;&gt;1&lt;/font&gt;" style="text;html=1;align=center;verticalAlign=middle;resizable=0;points=[];autosize=1;strokeColor=none;fillColor=none;fontSize=8;" vertex="1" parent="e_jC6DyC8DSp5otNmjVu-126">
          <mxGeometry width="30" height="20" as="geometry" />
        </mxCell>
        <mxCell id="e_jC6DyC8DSp5otNmjVu-128" value="&lt;font color=&quot;#f954a3&quot; style=&quot;font-size: 8px;&quot;&gt;1&lt;/font&gt;" style="text;html=1;align=center;verticalAlign=middle;resizable=0;points=[];autosize=1;strokeColor=none;fillColor=none;fontSize=8;" vertex="1" parent="e_jC6DyC8DSp5otNmjVu-126">
          <mxGeometry x="22.727272727272727" width="30" height="20" as="geometry" />
        </mxCell>
        <mxCell id="e_jC6DyC8DSp5otNmjVu-129" value="" style="endArrow=none;html=1;rounded=0;exitX=0.838;exitY=0.876;exitDx=0;exitDy=0;strokeColor=#F954A3;exitPerimeter=0;entryX=-0.017;entryY=0.902;entryDx=0;entryDy=0;entryPerimeter=0;" edge="1" parent="e_jC6DyC8DSp5otNmjVu-126">
          <mxGeometry width="50" height="50" relative="1" as="geometry">
            <mxPoint x="48.30909090909079" y="17.519999999999982" as="sourcePoint" />
            <mxPoint x="2.2636363636363717" y="18.04000000000002" as="targetPoint" />
          </mxGeometry>
        </mxCell>
        <mxCell id="e_jC6DyC8DSp5otNmjVu-130" value="" style="rounded=1;whiteSpace=wrap;html=1;fillColor=#f854a3;fontColor=#ffffff;strokeColor=none;" vertex="1" parent="1">
          <mxGeometry x="400" y="352" width="70" height="50" as="geometry" />
        </mxCell>
        <mxCell id="e_jC6DyC8DSp5otNmjVu-131" value="&lt;font color=&quot;#ffffff&quot;&gt;&lt;span style=&quot;font-size: 8px;&quot;&gt;停车费支付请求&lt;/span&gt;&lt;/font&gt;" style="text;html=1;align=center;verticalAlign=middle;resizable=0;points=[];autosize=1;strokeColor=none;fillColor=none;" vertex="1" parent="1">
          <mxGeometry x="395" y="356" width="80" height="30" as="geometry" />
        </mxCell>
        <mxCell id="e_jC6DyC8DSp5otNmjVu-132" value="&lt;font style=&quot;font-size: 5px;&quot;&gt;created_at&lt;/font&gt;" style="text;html=1;align=center;verticalAlign=middle;resizable=0;points=[];autosize=1;strokeColor=none;fillColor=none;fontColor=#FFFFFF;fontSize=5;" vertex="1" parent="1">
          <mxGeometry x="410" y="378" width="50" height="20" as="geometry" />
        </mxCell>
        <mxCell id="e_jC6DyC8DSp5otNmjVu-133" value="&lt;font style=&quot;font-size: 5px;&quot;&gt;expired_at&lt;/font&gt;" style="text;html=1;align=center;verticalAlign=middle;resizable=0;points=[];autosize=1;strokeColor=none;fillColor=none;fontColor=#FFFFFF;fontSize=5;" vertex="1" parent="1">
          <mxGeometry x="410" y="386" width="50" height="20" as="geometry" />
        </mxCell>
        <mxCell id="e_jC6DyC8DSp5otNmjVu-134" value="" style="rounded=1;whiteSpace=wrap;html=1;fillColor=#fe7e00;fontColor=#ffffff;strokeColor=none;" vertex="1" parent="1">
          <mxGeometry x="515" y="352" width="70" height="50" as="geometry" />
        </mxCell>
        <mxCell id="e_jC6DyC8DSp5otNmjVu-135" value="&lt;font color=&quot;#ffffff&quot;&gt;&lt;span style=&quot;font-size: 8px;&quot;&gt;停车费支付凭证&lt;/span&gt;&lt;/font&gt;" style="text;html=1;align=center;verticalAlign=middle;resizable=0;points=[];autosize=1;strokeColor=none;fillColor=none;" vertex="1" parent="1">
          <mxGeometry x="510" y="356" width="80" height="30" as="geometry" />
        </mxCell>
        <mxCell id="e_jC6DyC8DSp5otNmjVu-136" value="&lt;font style=&quot;font-size: 5px;&quot;&gt;created_at&lt;/font&gt;" style="text;html=1;align=center;verticalAlign=middle;resizable=0;points=[];autosize=1;strokeColor=none;fillColor=none;fontColor=#FFFFFF;fontSize=5;" vertex="1" parent="1">
          <mxGeometry x="525" y="378" width="50" height="20" as="geometry" />
        </mxCell>
        <mxCell id="e_jC6DyC8DSp5otNmjVu-137" value="" style="group" vertex="1" connectable="0" parent="1">
          <mxGeometry x="466" y="360" width="50" height="20" as="geometry" />
        </mxCell>
        <mxCell id="e_jC6DyC8DSp5otNmjVu-138" value="&lt;font color=&quot;#f954a3&quot; style=&quot;font-size: 8px;&quot;&gt;1&lt;/font&gt;" style="text;html=1;align=center;verticalAlign=middle;resizable=0;points=[];autosize=1;strokeColor=none;fillColor=none;fontSize=8;" vertex="1" parent="e_jC6DyC8DSp5otNmjVu-137">
          <mxGeometry width="30" height="20" as="geometry" />
        </mxCell>
        <mxCell id="e_jC6DyC8DSp5otNmjVu-139" value="&lt;font color=&quot;#f954a3&quot; style=&quot;font-size: 8px;&quot;&gt;1&lt;/font&gt;" style="text;html=1;align=center;verticalAlign=middle;resizable=0;points=[];autosize=1;strokeColor=none;fillColor=none;fontSize=8;" vertex="1" parent="e_jC6DyC8DSp5otNmjVu-137">
          <mxGeometry x="22.727272727272727" width="30" height="20" as="geometry" />
        </mxCell>
        <mxCell id="e_jC6DyC8DSp5otNmjVu-140" value="" style="endArrow=none;html=1;rounded=0;exitX=0.838;exitY=0.876;exitDx=0;exitDy=0;strokeColor=#F954A3;exitPerimeter=0;entryX=-0.017;entryY=0.902;entryDx=0;entryDy=0;entryPerimeter=0;" edge="1" parent="e_jC6DyC8DSp5otNmjVu-137">
          <mxGeometry width="50" height="50" relative="1" as="geometry">
            <mxPoint x="48.30909090909079" y="17.519999999999982" as="sourcePoint" />
            <mxPoint x="2.2636363636363717" y="18.04000000000002" as="targetPoint" />
          </mxGeometry>
        </mxCell>
        <mxCell id="e_jC6DyC8DSp5otNmjVu-141" value="" style="group" vertex="1" connectable="0" parent="1">
          <mxGeometry x="320" y="246" width="55" height="21" as="geometry" />
        </mxCell>
        <mxCell id="e_jC6DyC8DSp5otNmjVu-142" value="&lt;font color=&quot;#f954a3&quot; style=&quot;font-size: 8px;&quot;&gt;1&lt;/font&gt;" style="text;html=1;align=center;verticalAlign=middle;resizable=0;points=[];autosize=1;strokeColor=none;fillColor=none;fontSize=8;" vertex="1" parent="e_jC6DyC8DSp5otNmjVu-141">
          <mxGeometry width="30" height="20" as="geometry" />
        </mxCell>
        <mxCell id="e_jC6DyC8DSp5otNmjVu-143" value="&lt;font color=&quot;#f954a3&quot; style=&quot;font-size: 8px;&quot;&gt;1&lt;/font&gt;" style="text;html=1;align=center;verticalAlign=middle;resizable=0;points=[];autosize=1;strokeColor=none;fillColor=none;fontSize=8;" vertex="1" parent="e_jC6DyC8DSp5otNmjVu-141">
          <mxGeometry x="51" y="-19" width="30" height="20" as="geometry" />
        </mxCell>
        <mxCell id="e_jC6DyC8DSp5otNmjVu-144" value="" style="endArrow=none;html=1;rounded=0;strokeColor=#F954A3;entryX=-0.017;entryY=0.902;entryDx=0;entryDy=0;entryPerimeter=0;" edge="1" parent="e_jC6DyC8DSp5otNmjVu-141">
          <mxGeometry width="50" height="50" relative="1" as="geometry">
            <mxPoint x="79" y="-7" as="sourcePoint" />
            <mxPoint x="2.490000000000009" y="18.04000000000002" as="targetPoint" />
          </mxGeometry>
        </mxCell>
        <mxCell id="e_jC6DyC8DSp5otNmjVu-145" value="" style="group" vertex="1" connectable="0" parent="e_jC6DyC8DSp5otNmjVu-141">
          <mxGeometry width="55" height="20" as="geometry" />
        </mxCell>
        <mxCell id="e_jC6DyC8DSp5otNmjVu-146" value="&lt;font color=&quot;#f954a3&quot; style=&quot;font-size: 8px;&quot;&gt;1&lt;/font&gt;" style="text;html=1;align=center;verticalAlign=middle;resizable=0;points=[];autosize=1;strokeColor=none;fillColor=none;fontSize=8;" vertex="1" parent="e_jC6DyC8DSp5otNmjVu-145">
          <mxGeometry y="12" width="30" height="20" as="geometry" />
        </mxCell>
        <mxCell id="e_jC6DyC8DSp5otNmjVu-147" value="&lt;font color=&quot;#f954a3&quot; style=&quot;font-size: 8px;&quot;&gt;1&lt;/font&gt;" style="text;html=1;align=center;verticalAlign=middle;resizable=0;points=[];autosize=1;strokeColor=none;fillColor=none;fontSize=8;" vertex="1" parent="e_jC6DyC8DSp5otNmjVu-145">
          <mxGeometry x="53" y="41" width="30" height="20" as="geometry" />
        </mxCell>
        <mxCell id="e_jC6DyC8DSp5otNmjVu-148" value="" style="endArrow=none;html=1;rounded=0;exitX=0.008;exitY=0.798;exitDx=0;exitDy=0;strokeColor=#F954A3;exitPerimeter=0;entryX=-0.017;entryY=0.902;entryDx=0;entryDy=0;entryPerimeter=0;" edge="1" parent="e_jC6DyC8DSp5otNmjVu-145" source="e_jC6DyC8DSp5otNmjVu-120">
          <mxGeometry width="50" height="50" relative="1" as="geometry">
            <mxPoint x="53.13999999999987" y="17.519999999999982" as="sourcePoint" />
            <mxPoint x="2.490000000000009" y="18.04000000000002" as="targetPoint" />
          </mxGeometry>
        </mxCell>
        <mxCell id="e_jC6DyC8DSp5otNmjVu-149" value="" style="group" vertex="1" connectable="0" parent="e_jC6DyC8DSp5otNmjVu-145">
          <mxGeometry x="-2" width="55" height="20" as="geometry" />
        </mxCell>
        <mxCell id="e_jC6DyC8DSp5otNmjVu-150" value="&lt;font color=&quot;#f954a3&quot; style=&quot;font-size: 8px;&quot;&gt;1&lt;/font&gt;" style="text;html=1;align=center;verticalAlign=middle;resizable=0;points=[];autosize=1;strokeColor=none;fillColor=none;fontSize=8;" vertex="1" parent="e_jC6DyC8DSp5otNmjVu-149">
          <mxGeometry x="-5" y="31" width="30" height="20" as="geometry" />
        </mxCell>
        <mxCell id="e_jC6DyC8DSp5otNmjVu-151" value="&lt;font color=&quot;#f954a3&quot; style=&quot;font-size: 8px;&quot;&gt;1&lt;/font&gt;" style="text;html=1;align=center;verticalAlign=middle;resizable=0;points=[];autosize=1;strokeColor=none;fillColor=none;fontSize=8;" vertex="1" parent="e_jC6DyC8DSp5otNmjVu-149">
          <mxGeometry x="54" y="120" width="30" height="20" as="geometry" />
        </mxCell>
        <mxCell id="e_jC6DyC8DSp5otNmjVu-152" value="" style="endArrow=none;html=1;rounded=0;exitX=0.063;exitY=0.8;exitDx=0;exitDy=0;strokeColor=#F954A3;exitPerimeter=0;entryX=-0.017;entryY=0.902;entryDx=0;entryDy=0;entryPerimeter=0;" edge="1" parent="e_jC6DyC8DSp5otNmjVu-149" source="e_jC6DyC8DSp5otNmjVu-131">
          <mxGeometry width="50" height="50" relative="1" as="geometry">
            <mxPoint x="53.13999999999987" y="17.519999999999982" as="sourcePoint" />
            <mxPoint x="2.490000000000009" y="18.04000000000002" as="targetPoint" />
          </mxGeometry>
        </mxCell>
        <mxCell id="e_jC6DyC8DSp5otNmjVu-164" value="" style="group;fontSize=11;" vertex="1" connectable="0" parent="1">
          <mxGeometry x="500" y="196" width="100" height="28" as="geometry" />
        </mxCell>
        <mxCell id="e_jC6DyC8DSp5otNmjVu-165" value="维保服务商" style="rounded=1;whiteSpace=wrap;html=1;fillColor=#fe7e00;fontColor=#ffffff;strokeColor=none;fontSize=6;" vertex="1" parent="e_jC6DyC8DSp5otNmjVu-164">
          <mxGeometry x="65" y="-5" width="35" height="20" as="geometry" />
        </mxCell>
        <mxCell id="e_jC6DyC8DSp5otNmjVu-196" value="" style="group" vertex="1" connectable="0" parent="e_jC6DyC8DSp5otNmjVu-164">
          <mxGeometry x="320" y="244" width="70" height="62" as="geometry" />
        </mxCell>
        <mxCell id="e_jC6DyC8DSp5otNmjVu-197" value="" style="rounded=1;whiteSpace=wrap;html=1;fillColor=#f854a3;fontColor=#ffffff;strokeColor=none;" vertex="1" parent="e_jC6DyC8DSp5otNmjVu-196">
          <mxGeometry y="12" width="70" height="50" as="geometry" />
        </mxCell>
        <mxCell id="e_jC6DyC8DSp5otNmjVu-198" value="&lt;font style=&quot;font-size: 7px;&quot;&gt;&amp;lt;Fulfillment&amp;gt;&lt;/font&gt;" style="text;html=1;align=center;verticalAlign=middle;resizable=0;points=[];autosize=1;strokeColor=none;fillColor=none;fontColor=#FFFFFF;" vertex="1" parent="e_jC6DyC8DSp5otNmjVu-196">
          <mxGeometry x="5" width="60" height="30" as="geometry" />
        </mxCell>
        <mxCell id="e_jC6DyC8DSp5otNmjVu-199" value="&lt;font color=&quot;#ffffff&quot;&gt;&lt;span style=&quot;font-size: 8px;&quot;&gt;支付请求&lt;/span&gt;&lt;/font&gt;" style="text;html=1;align=center;verticalAlign=middle;resizable=0;points=[];autosize=1;strokeColor=none;fillColor=none;" vertex="1" parent="e_jC6DyC8DSp5otNmjVu-196">
          <mxGeometry x="5" y="16" width="60" height="30" as="geometry" />
        </mxCell>
        <mxCell id="e_jC6DyC8DSp5otNmjVu-200" value="&lt;font style=&quot;font-size: 5px;&quot;&gt;created_at&lt;/font&gt;" style="text;html=1;align=center;verticalAlign=middle;resizable=0;points=[];autosize=1;strokeColor=none;fillColor=none;fontColor=#FFFFFF;fontSize=5;" vertex="1" parent="e_jC6DyC8DSp5otNmjVu-196">
          <mxGeometry x="10" y="41" width="50" height="20" as="geometry" />
        </mxCell>
        <mxCell id="e_jC6DyC8DSp5otNmjVu-201" value="&lt;font style=&quot;font-size: 5px;&quot;&gt;expired_at&lt;/font&gt;" style="text;html=1;align=center;verticalAlign=middle;resizable=0;points=[];autosize=1;strokeColor=none;fillColor=none;fontColor=#FFFFFF;fontSize=5;" vertex="1" parent="e_jC6DyC8DSp5otNmjVu-196">
          <mxGeometry x="10" y="47" width="50" height="20" as="geometry" />
        </mxCell>
        <mxCell id="e_jC6DyC8DSp5otNmjVu-202" value="&lt;font style=&quot;font-size: 5px;&quot;&gt;amount&lt;/font&gt;" style="text;html=1;align=center;verticalAlign=middle;resizable=0;points=[];autosize=1;strokeColor=none;fillColor=none;fontColor=#FFFFFF;fontSize=5;" vertex="1" parent="e_jC6DyC8DSp5otNmjVu-196">
          <mxGeometry x="14" y="35" width="40" height="20" as="geometry" />
        </mxCell>
        <mxCell id="e_jC6DyC8DSp5otNmjVu-224" value="&lt;font color=&quot;#f954a3&quot; style=&quot;font-size: 8px;&quot;&gt;1&lt;/font&gt;" style="text;html=1;align=center;verticalAlign=middle;resizable=0;points=[];autosize=1;strokeColor=none;fillColor=none;fontSize=8;" vertex="1" parent="e_jC6DyC8DSp5otNmjVu-196">
          <mxGeometry x="23.997272727272726" y="-4" width="30" height="20" as="geometry" />
        </mxCell>
        <mxCell id="e_jC6DyC8DSp5otNmjVu-166" value="维保服务商" style="rounded=1;whiteSpace=wrap;html=1;fillColor=#fe7e00;fontColor=#ffffff;strokeColor=none;fontSize=6;" vertex="1" parent="1">
          <mxGeometry x="453" y="253" width="37" height="20" as="geometry" />
        </mxCell>
        <mxCell id="e_jC6DyC8DSp5otNmjVu-167" value="维保服务商" style="rounded=1;whiteSpace=wrap;html=1;fillColor=#fe7e00;fontColor=#ffffff;strokeColor=none;fontSize=6;" vertex="1" parent="1">
          <mxGeometry x="455" y="317" width="35" height="20" as="geometry" />
        </mxCell>
        <mxCell id="e_jC6DyC8DSp5otNmjVu-175" value="" style="group;fontSize=11;" vertex="1" connectable="0" parent="1">
          <mxGeometry x="568" y="248" width="60" height="26" as="geometry" />
        </mxCell>
        <mxCell id="e_jC6DyC8DSp5otNmjVu-176" value="租车公司维保代理人" style="rounded=1;whiteSpace=wrap;html=1;fillColor=#fe7e00;fontColor=#ffffff;strokeColor=none;fontSize=6;" vertex="1" parent="e_jC6DyC8DSp5otNmjVu-175">
          <mxGeometry x="-1" y="6" width="41" height="20" as="geometry" />
        </mxCell>
        <mxCell id="e_jC6DyC8DSp5otNmjVu-177" value="" style="group;fontSize=11;" vertex="1" connectable="0" parent="1">
          <mxGeometry x="568" y="311" width="60" height="26" as="geometry" />
        </mxCell>
        <mxCell id="e_jC6DyC8DSp5otNmjVu-178" value="租车公司维保代理人" style="rounded=1;whiteSpace=wrap;html=1;fillColor=#fe7e00;fontColor=#ffffff;strokeColor=none;fontSize=6;" vertex="1" parent="e_jC6DyC8DSp5otNmjVu-177">
          <mxGeometry x="-1" y="6" width="41" height="20" as="geometry" />
        </mxCell>
        <mxCell id="e_jC6DyC8DSp5otNmjVu-179" value="维保服务商" style="rounded=1;whiteSpace=wrap;html=1;fillColor=#fe7e00;fontColor=#ffffff;strokeColor=none;fontSize=6;" vertex="1" parent="1">
          <mxGeometry x="454" y="385" width="36" height="20" as="geometry" />
        </mxCell>
        <mxCell id="e_jC6DyC8DSp5otNmjVu-180" value="" style="group;fontSize=11;" vertex="1" connectable="0" parent="1">
          <mxGeometry x="569" y="379" width="60" height="26" as="geometry" />
        </mxCell>
        <mxCell id="e_jC6DyC8DSp5otNmjVu-181" value="租车公司维保代理人" style="rounded=1;whiteSpace=wrap;html=1;fillColor=#fe7e00;fontColor=#ffffff;strokeColor=none;fontSize=6;" vertex="1" parent="e_jC6DyC8DSp5otNmjVu-180">
          <mxGeometry x="-1" y="6" width="41" height="20" as="geometry" />
        </mxCell>
        <mxCell id="e_jC6DyC8DSp5otNmjVu-182" value="&lt;font style=&quot;font-size: 7px;&quot;&gt;&amp;lt;Fulfillment&amp;gt;&lt;/font&gt;" style="text;html=1;align=center;verticalAlign=middle;resizable=0;points=[];autosize=1;strokeColor=none;fillColor=none;fontColor=#FFFFFF;" vertex="1" parent="1">
          <mxGeometry x="404" y="209" width="60" height="30" as="geometry" />
        </mxCell>
        <mxCell id="e_jC6DyC8DSp5otNmjVu-183" value="&lt;font style=&quot;font-size: 7px;&quot;&gt;&amp;lt;Fulfillment&amp;gt;&lt;/font&gt;" style="text;html=1;align=center;verticalAlign=middle;resizable=0;points=[];autosize=1;strokeColor=none;fillColor=none;fontColor=#FFFFFF;" vertex="1" parent="1">
          <mxGeometry x="518" y="209" width="60" height="30" as="geometry" />
        </mxCell>
        <mxCell id="e_jC6DyC8DSp5otNmjVu-184" value="&lt;font style=&quot;font-size: 7px;&quot;&gt;&amp;lt;Fulfillment&amp;gt;&lt;/font&gt;" style="text;html=1;align=center;verticalAlign=middle;resizable=0;points=[];autosize=1;strokeColor=none;fillColor=none;fontColor=#FFFFFF;" vertex="1" parent="1">
          <mxGeometry x="402" y="272" width="60" height="30" as="geometry" />
        </mxCell>
        <mxCell id="e_jC6DyC8DSp5otNmjVu-185" value="&lt;font style=&quot;font-size: 7px;&quot;&gt;&amp;lt;Fulfillment&amp;gt;&lt;/font&gt;" style="text;html=1;align=center;verticalAlign=middle;resizable=0;points=[];autosize=1;strokeColor=none;fillColor=none;fontColor=#FFFFFF;" vertex="1" parent="1">
          <mxGeometry x="404" y="341" width="60" height="30" as="geometry" />
        </mxCell>
        <mxCell id="e_jC6DyC8DSp5otNmjVu-186" value="&lt;font style=&quot;font-size: 7px;&quot;&gt;&amp;lt;Evidence&amp;gt;&lt;/font&gt;" style="text;html=1;align=center;verticalAlign=middle;resizable=0;points=[];autosize=1;strokeColor=none;fillColor=none;fontColor=#FFFFFF;" vertex="1" parent="1">
          <mxGeometry x="518" y="273" width="60" height="30" as="geometry" />
        </mxCell>
        <mxCell id="e_jC6DyC8DSp5otNmjVu-187" value="&lt;font style=&quot;font-size: 7px;&quot;&gt;&amp;lt;Evidence&amp;gt;&lt;/font&gt;" style="text;html=1;align=center;verticalAlign=middle;resizable=0;points=[];autosize=1;strokeColor=none;fillColor=none;fontColor=#FFFFFF;" vertex="1" parent="1">
          <mxGeometry x="518" y="342" width="60" height="30" as="geometry" />
        </mxCell>
        <mxCell id="e_jC6DyC8DSp5otNmjVu-188" value="" style="endArrow=none;html=1;rounded=0;exitX=0.5;exitY=1;exitDx=0;exitDy=0;strokeColor=#F954A3;" edge="1" parent="1" source="e_jC6DyC8DSp5otNmjVu-28">
          <mxGeometry width="50" height="50" relative="1" as="geometry">
            <mxPoint x="94" y="213" as="sourcePoint" />
            <mxPoint x="190" y="240" as="targetPoint" />
          </mxGeometry>
        </mxCell>
        <mxCell id="e_jC6DyC8DSp5otNmjVu-189" value="" style="group" vertex="1" connectable="0" parent="1">
          <mxGeometry x="940" y="440" width="70" height="62" as="geometry" />
        </mxCell>
        <mxCell id="e_jC6DyC8DSp5otNmjVu-190" value="" style="rounded=1;whiteSpace=wrap;html=1;fillColor=#f854a3;fontColor=#ffffff;strokeColor=none;" vertex="1" parent="e_jC6DyC8DSp5otNmjVu-189">
          <mxGeometry y="12" width="70" height="50" as="geometry" />
        </mxCell>
        <mxCell id="e_jC6DyC8DSp5otNmjVu-191" value="&lt;font style=&quot;font-size: 7px;&quot;&gt;&amp;lt;Contract&amp;gt;&lt;/font&gt;" style="text;html=1;align=center;verticalAlign=middle;resizable=0;points=[];autosize=1;strokeColor=none;fillColor=none;fontColor=#FFFFFF;" vertex="1" parent="e_jC6DyC8DSp5otNmjVu-189">
          <mxGeometry x="5" width="60" height="30" as="geometry" />
        </mxCell>
        <mxCell id="e_jC6DyC8DSp5otNmjVu-192" value="&lt;font color=&quot;#ffffff&quot;&gt;&lt;span style=&quot;font-size: 8px;&quot;&gt;支付合同&lt;/span&gt;&lt;/font&gt;" style="text;html=1;align=center;verticalAlign=middle;resizable=0;points=[];autosize=1;strokeColor=none;fillColor=none;" vertex="1" parent="e_jC6DyC8DSp5otNmjVu-189">
          <mxGeometry x="5" y="16" width="60" height="30" as="geometry" />
        </mxCell>
        <mxCell id="e_jC6DyC8DSp5otNmjVu-193" value="&lt;font style=&quot;font-size: 5px;&quot;&gt;created_at&lt;/font&gt;" style="text;html=1;align=center;verticalAlign=middle;resizable=0;points=[];autosize=1;strokeColor=none;fillColor=none;fontColor=#FFFFFF;fontSize=5;" vertex="1" parent="e_jC6DyC8DSp5otNmjVu-189">
          <mxGeometry x="10" y="38" width="50" height="20" as="geometry" />
        </mxCell>
        <mxCell id="e_jC6DyC8DSp5otNmjVu-194" value="&lt;font style=&quot;font-size: 5px;&quot;&gt;expired_at&lt;/font&gt;" style="text;html=1;align=center;verticalAlign=middle;resizable=0;points=[];autosize=1;strokeColor=none;fillColor=none;fontColor=#FFFFFF;fontSize=5;" vertex="1" parent="e_jC6DyC8DSp5otNmjVu-189">
          <mxGeometry x="10" y="46" width="50" height="20" as="geometry" />
        </mxCell>
        <mxCell id="e_jC6DyC8DSp5otNmjVu-203" value="" style="group;fontSize=6;" vertex="1" connectable="0" parent="1">
          <mxGeometry x="761" y="362" width="129" height="90" as="geometry" />
        </mxCell>
        <mxCell id="e_jC6DyC8DSp5otNmjVu-204" value="" style="rounded=1;whiteSpace=wrap;html=1;fillColor=#F954A3;fontColor=#ffffff;strokeColor=none;" vertex="1" parent="e_jC6DyC8DSp5otNmjVu-203">
          <mxGeometry x="56" y="12" width="70" height="50" as="geometry" />
        </mxCell>
        <mxCell id="e_jC6DyC8DSp5otNmjVu-205" value="&lt;font style=&quot;font-size: 7px;&quot;&gt;&amp;lt;Fulfillment&amp;gt;&lt;/font&gt;" style="text;html=1;align=center;verticalAlign=middle;resizable=0;points=[];autosize=1;strokeColor=none;fillColor=none;fontColor=#FFFFFF;" vertex="1" parent="e_jC6DyC8DSp5otNmjVu-203">
          <mxGeometry x="61" width="60" height="30" as="geometry" />
        </mxCell>
        <mxCell id="e_jC6DyC8DSp5otNmjVu-206" value="&lt;font color=&quot;#ffffff&quot;&gt;&lt;span style=&quot;font-size: 8px;&quot;&gt;支付确认&lt;/span&gt;&lt;/font&gt;" style="text;html=1;align=center;verticalAlign=middle;resizable=0;points=[];autosize=1;strokeColor=none;fillColor=none;" vertex="1" parent="e_jC6DyC8DSp5otNmjVu-203">
          <mxGeometry x="62" y="16" width="60" height="30" as="geometry" />
        </mxCell>
        <mxCell id="e_jC6DyC8DSp5otNmjVu-207" value="&lt;font style=&quot;font-size: 5px;&quot;&gt;created_at&lt;/font&gt;" style="text;html=1;align=center;verticalAlign=middle;resizable=0;points=[];autosize=1;strokeColor=none;fillColor=none;fontColor=#FFFFFF;fontSize=5;" vertex="1" parent="e_jC6DyC8DSp5otNmjVu-203">
          <mxGeometry x="66" y="38" width="50" height="20" as="geometry" />
        </mxCell>
        <mxCell id="e_jC6DyC8DSp5otNmjVu-227" value="&lt;font color=&quot;#f954a3&quot; style=&quot;font-size: 8px;&quot;&gt;1&lt;/font&gt;" style="text;html=1;align=center;verticalAlign=middle;resizable=0;points=[];autosize=1;strokeColor=none;fillColor=none;fontSize=8;" vertex="1" parent="e_jC6DyC8DSp5otNmjVu-203">
          <mxGeometry x="82.99727272727273" y="58" width="30" height="20" as="geometry" />
        </mxCell>
        <mxCell id="e_jC6DyC8DSp5otNmjVu-210" value="" style="group" vertex="1" connectable="0" parent="1">
          <mxGeometry x="940" y="360" width="75" height="62" as="geometry" />
        </mxCell>
        <mxCell id="e_jC6DyC8DSp5otNmjVu-211" value="" style="rounded=1;whiteSpace=wrap;html=1;fillColor=#fe7e00;fontColor=#ffffff;strokeColor=none;" vertex="1" parent="e_jC6DyC8DSp5otNmjVu-210">
          <mxGeometry y="12" width="70" height="50" as="geometry" />
        </mxCell>
        <mxCell id="e_jC6DyC8DSp5otNmjVu-212" value="&lt;font style=&quot;font-size: 7px;&quot;&gt;&amp;lt;3rd party&amp;gt;&lt;/font&gt;" style="text;html=1;align=center;verticalAlign=middle;resizable=0;points=[];autosize=1;strokeColor=none;fillColor=none;fontColor=#FFFFFF;" vertex="1" parent="e_jC6DyC8DSp5otNmjVu-210">
          <mxGeometry x="5" width="60" height="30" as="geometry" />
        </mxCell>
        <mxCell id="e_jC6DyC8DSp5otNmjVu-213" value="&lt;font color=&quot;#ffffff&quot;&gt;&lt;span style=&quot;font-size: 8px;&quot;&gt;支付平台&lt;/span&gt;&lt;/font&gt;" style="text;html=1;align=center;verticalAlign=middle;resizable=0;points=[];autosize=1;strokeColor=none;fillColor=none;" vertex="1" parent="e_jC6DyC8DSp5otNmjVu-210">
          <mxGeometry x="5" y="21" width="60" height="30" as="geometry" />
        </mxCell>
        <mxCell id="e_jC6DyC8DSp5otNmjVu-214" value="" style="group" vertex="1" connectable="0" parent="1">
          <mxGeometry x="939.5" y="520" width="75" height="62" as="geometry" />
        </mxCell>
        <mxCell id="e_jC6DyC8DSp5otNmjVu-215" value="" style="rounded=1;whiteSpace=wrap;html=1;fillColor=#fe7e00;fontColor=#ffffff;strokeColor=none;" vertex="1" parent="e_jC6DyC8DSp5otNmjVu-214">
          <mxGeometry y="12" width="70" height="50" as="geometry" />
        </mxCell>
        <mxCell id="e_jC6DyC8DSp5otNmjVu-216" value="&lt;font style=&quot;font-size: 7px;&quot;&gt;&amp;lt;3rd party&amp;gt;&lt;/font&gt;" style="text;html=1;align=center;verticalAlign=middle;resizable=0;points=[];autosize=1;strokeColor=none;fillColor=none;fontColor=#FFFFFF;" vertex="1" parent="e_jC6DyC8DSp5otNmjVu-214">
          <mxGeometry x="5" width="60" height="30" as="geometry" />
        </mxCell>
        <mxCell id="e_jC6DyC8DSp5otNmjVu-217" value="&lt;font color=&quot;#ffffff&quot;&gt;&lt;span style=&quot;font-size: 8px;&quot;&gt;支付平台用户&lt;/span&gt;&lt;/font&gt;" style="text;html=1;align=center;verticalAlign=middle;resizable=0;points=[];autosize=1;strokeColor=none;fillColor=none;" vertex="1" parent="e_jC6DyC8DSp5otNmjVu-214">
          <mxGeometry y="21" width="70" height="30" as="geometry" />
        </mxCell>
        <mxCell id="e_jC6DyC8DSp5otNmjVu-218" value="" style="group" vertex="1" connectable="0" parent="1">
          <mxGeometry x="890" y="461" width="50" height="20" as="geometry" />
        </mxCell>
        <mxCell id="e_jC6DyC8DSp5otNmjVu-219" value="&lt;font color=&quot;#f954a3&quot;&gt;*&lt;/font&gt;" style="text;html=1;align=center;verticalAlign=middle;resizable=0;points=[];autosize=1;strokeColor=none;fillColor=none;fontSize=8;" vertex="1" parent="e_jC6DyC8DSp5otNmjVu-218">
          <mxGeometry width="30" height="20" as="geometry" />
        </mxCell>
        <mxCell id="e_jC6DyC8DSp5otNmjVu-220" value="&lt;font color=&quot;#f954a3&quot; style=&quot;font-size: 8px;&quot;&gt;1&lt;/font&gt;" style="text;html=1;align=center;verticalAlign=middle;resizable=0;points=[];autosize=1;strokeColor=none;fillColor=none;fontSize=8;" vertex="1" parent="e_jC6DyC8DSp5otNmjVu-218">
          <mxGeometry x="22.727272727272727" width="30" height="20" as="geometry" />
        </mxCell>
        <mxCell id="e_jC6DyC8DSp5otNmjVu-221" value="" style="endArrow=none;html=1;rounded=0;exitX=0.92;exitY=0.861;exitDx=0;exitDy=0;strokeColor=#F954A3;exitPerimeter=0;entryX=-0.026;entryY=0.872;entryDx=0;entryDy=0;entryPerimeter=0;" edge="1" parent="e_jC6DyC8DSp5otNmjVu-218" source="e_jC6DyC8DSp5otNmjVu-220" target="e_jC6DyC8DSp5otNmjVu-219">
          <mxGeometry width="50" height="50" relative="1" as="geometry">
            <mxPoint x="48.30909090909079" y="16.64399999999998" as="sourcePoint" />
            <mxPoint x="2.2636363636363717" y="17.13800000000002" as="targetPoint" />
          </mxGeometry>
        </mxCell>
        <mxCell id="e_jC6DyC8DSp5otNmjVu-225" value="" style="endArrow=none;html=1;rounded=0;exitX=0.011;exitY=0.158;exitDx=0;exitDy=0;strokeColor=#F954A3;exitPerimeter=0;entryX=0.45;entryY=-0.072;entryDx=0;entryDy=0;entryPerimeter=0;" edge="1" parent="1" target="e_jC6DyC8DSp5otNmjVu-199">
          <mxGeometry width="50" height="50" relative="1" as="geometry">
            <mxPoint x="852.3299999999999" y="423.15999999999997" as="sourcePoint" />
            <mxPoint x="851" y="450" as="targetPoint" />
          </mxGeometry>
        </mxCell>
        <mxCell id="e_jC6DyC8DSp5otNmjVu-229" value="" style="endArrow=none;html=1;rounded=0;strokeColor=#F954A3;entryX=-0.017;entryY=0.902;entryDx=0;entryDy=0;entryPerimeter=0;exitX=-0.006;exitY=0.545;exitDx=0;exitDy=0;exitPerimeter=0;" edge="1" parent="1" source="e_jC6DyC8DSp5otNmjVu-211">
          <mxGeometry width="50" height="50" relative="1" as="geometry">
            <mxPoint x="940" y="400" as="sourcePoint" />
            <mxPoint x="880.0036363636364" y="398.91" as="targetPoint" />
          </mxGeometry>
        </mxCell>
        <mxCell id="e_jC6DyC8DSp5otNmjVu-230" value="" style="endArrow=none;html=1;rounded=0;strokeColor=#F954A3;exitX=0.5;exitY=1;exitDx=0;exitDy=0;" edge="1" parent="1" target="e_jC6DyC8DSp5otNmjVu-191">
          <mxGeometry width="50" height="50" relative="1" as="geometry">
            <mxPoint x="975" y="422" as="sourcePoint" />
            <mxPoint x="975" y="450" as="targetPoint" />
            <Array as="points">
              <mxPoint x="975" y="460" />
            </Array>
          </mxGeometry>
        </mxCell>
        <mxCell id="e_jC6DyC8DSp5otNmjVu-231" value="" style="endArrow=none;html=1;rounded=0;strokeColor=#F954A3;" edge="1" parent="1">
          <mxGeometry width="50" height="50" relative="1" as="geometry">
            <mxPoint x="854" y="500" as="sourcePoint" />
            <mxPoint x="940" y="560" as="targetPoint" />
            <Array as="points">
              <mxPoint x="940" y="560" />
            </Array>
          </mxGeometry>
        </mxCell>
        <mxCell id="e_jC6DyC8DSp5otNmjVu-232" value="" style="endArrow=none;html=1;rounded=0;strokeColor=#F954A3;exitX=0.5;exitY=1;exitDx=0;exitDy=0;" edge="1" parent="1">
          <mxGeometry width="50" height="50" relative="1" as="geometry">
            <mxPoint x="975" y="503" as="sourcePoint" />
            <mxPoint x="975" y="531" as="targetPoint" />
            <Array as="points" />
          </mxGeometry>
        </mxCell>
        <mxCell id="e_jC6DyC8DSp5otNmjVu-234" value="" style="endArrow=classic;html=1;rounded=0;entryX=0.583;entryY=1.131;entryDx=0;entryDy=0;strokeColor=#F954A3;dashed=1;entryPerimeter=0;" edge="1" parent="1" target="e_jC6DyC8DSp5otNmjVu-125">
          <mxGeometry width="50" height="50" relative="1" as="geometry">
            <mxPoint x="820" y="400" as="sourcePoint" />
            <mxPoint x="608" y="490" as="targetPoint" />
            <Array as="points">
              <mxPoint x="820" y="400" />
            </Array>
          </mxGeometry>
        </mxCell>
        <mxCell id="e_jC6DyC8DSp5otNmjVu-235" value="" style="endArrow=classic;html=1;rounded=0;strokeColor=#F954A3;dashed=1;" edge="1" parent="1" target="e_jC6DyC8DSp5otNmjVu-135">
          <mxGeometry width="50" height="50" relative="1" as="geometry">
            <mxPoint x="830" y="410" as="sourcePoint" />
            <mxPoint x="562" y="343" as="targetPoint" />
            <Array as="points">
              <mxPoint x="820" y="400" />
            </Array>
          </mxGeometry>
        </mxCell>
      </root>
    </mxGraphModel>
  </diagram>
</mxfile>
